<svg xmlns="http://www.w3.org/2000/svg" version="1.1" xmlns:xlink="http://www.w3.org/1999/xlink" xmlns:svgjs="http://svgjs.com/svgjs" width="512" height="512" x="0" y="0" viewBox="0 0 24 24" style="enable-background:new 0 0 512 512" xml:space="preserve"><g><path d="M11.466 22.776a.746.746 0 0 0 1.068 0l9.594-9.721c2.491-2.523 2.491-6.63 0-9.154C20.918 2.675 19.309 2 17.596 2s-3.321.675-4.531 1.9L12 4.98l-1.065-1.079A6.323 6.323 0 0 0 6.404 2a6.324 6.324 0 0 0-4.532 1.901c-2.491 2.524-2.491 6.631 0 9.153zM2.939 4.954A4.84 4.84 0 0 1 6.403 3.5c1.308 0 2.538.517 3.463 1.455l1.599 1.62a.773.773 0 0 0 1.067 0l1.599-1.621A4.847 4.847 0 0 1 17.596 3.5a4.84 4.84 0 0 1 3.464 1.454c1.917 1.943 1.917 5.104 0 7.048L12 21.183l-9.061-9.182c-1.917-1.942-1.917-5.104 0-7.047z" fill="#000000" data-original="#000000"></path></g></svg>